<svg xmlns="http://www.w3.org/2000/svg" viewBox="0 0 381.06 248.35"><defs><style>.cls-1{isolation:isolate;}.cls-2{fill:#cecece;}.cls-14,.cls-3{fill:#fff;}.cls-4,.cls-7{fill:#a1bf3b;}.cls-5,.cls-6{fill:#a2b7e8;}.cls-10,.cls-11,.cls-12,.cls-13,.cls-14,.cls-15,.cls-16,.cls-5,.cls-7,.cls-8,.cls-9{fill-rule:evenodd;}.cls-8{fill:#ff714d;}.cls-12,.cls-9{fill:#292a61;}.cls-10{fill:#3221cf;}.cls-11{fill:#265698;}.cls-12{opacity:0.34;mix-blend-mode:multiply;}.cls-13{fill:#d18a17;}.cls-15{fill:#e8e8e8;}.cls-16{fill:#b5da52;}</style></defs><title>s</title><g class="cls-1"><g id="Layer_1" data-name="Layer 1"><rect class="cls-2" x="22.99" y="20.47" width="211.65" height="132.65" rx="10.01" ry="10.01"/><rect class="cls-3" x="34.49" y="30.61" width="188.65" height="23.13" rx="11.56" ry="11.56"/><rect class="cls-3" x="34.49" y="60.11" width="188.65" height="23.13" rx="11.56" ry="11.56"/><rect class="cls-3" x="34.49" y="89.61" width="188.65" height="23.13" rx="11.56" ry="11.56"/><rect class="cls-3" x="34.49" y="119.11" width="188.65" height="23.13" rx="11.56" ry="11.56"/><path class="cls-4" d="M54.48,36.41l-7,7.16-3.27-3.1-2.3,2.3,5.57,5.41,9.28-9.47Z"/><path class="cls-4" d="M54.48,65.2l-7,7.16-3.27-3.1-2.3,2.3L47.5,77l9.28-9.47Z"/><path class="cls-4" d="M54.48,123.39l-7,7.16-3.27-3.1-2.3,2.3,5.57,5.4,9.28-9.46Z"/><path class="cls-4" d="M54.48,94.07l-7,7.16-3.27-3.11-2.3,2.3,5.57,5.41,9.28-9.47Z"/><rect class="cls-2" x="59.16" y="39.44" width="152.98" height="6.2" rx="3.1" ry="3.1"/><rect class="cls-2" x="59.16" y="68.94" width="152.98" height="6.2" rx="3.1" ry="3.1"/><rect class="cls-2" x="59.16" y="98.44" width="152.98" height="6.2" rx="3.1" ry="3.1"/><rect class="cls-2" x="59.16" y="127.94" width="152.98" height="6.2" rx="3.1" ry="3.1"/><path class="cls-5" d="M357.48,215.11h0a1.67,1.67,0,0,1-2.12-.9L326.3,143a1.56,1.56,0,0,1,.92-2h0a1.68,1.68,0,0,1,2.13.9l29.06,71.23A1.56,1.56,0,0,1,357.48,215.11Z"/><path class="cls-5" d="M268.9,216.27h0a1.16,1.16,0,0,1-.64-1.5l22.09-54.68a1.15,1.15,0,0,1,1.5-.63h0a1.14,1.14,0,0,1,.63,1.49L270.4,215.63A1.16,1.16,0,0,1,268.9,216.27Z"/><path class="cls-5" d="M270.27,217h0a1.79,1.79,0,0,1-2.21-1.11l-33.28-75.31c-.38-.93-.63-.26.21-.58l1.82.08c.85-.32.64-1.58,1-.65l33.28,75.31A1.67,1.67,0,0,1,270.27,217Z"/><rect class="cls-6" x="273.91" y="153" width="53.44" height="10.18" rx="5.09" ry="5.09"/><path class="cls-5" d="M301.24,185.22H282.87a.91.91,0,0,1-.91-.91h0a.91.91,0,0,1,.91-.91h18.37a.91.91,0,0,1,.91.91h0A.91.91,0,0,1,301.24,185.22Z"/><path class="cls-5" d="M297.87,213.25h0a1.16,1.16,0,0,1-.64-1.5l20.87-51.66a1.15,1.15,0,0,1,1.5-.63h0a1.13,1.13,0,0,1,.63,1.49l-20.86,51.66A1.15,1.15,0,0,1,297.87,213.25Z"/><path class="cls-5" d="M341.72,213.25h0a1.16,1.16,0,0,0,.64-1.5l-20.87-51.66a1.15,1.15,0,0,0-1.5-.63h0a1.13,1.13,0,0,0-.63,1.49l20.86,51.66A1.15,1.15,0,0,0,341.72,213.25Z"/><path class="cls-5" d="M185.63,215h0a1.55,1.55,0,0,1-.9-2.05l29.79-71a1.65,1.65,0,0,1,2.13-.87h0a1.56,1.56,0,0,1,.91,2l-29.79,71A1.66,1.66,0,0,1,185.63,215Z"/><path class="cls-5" d="M314,213.25h0a1.15,1.15,0,0,0,.63-1.5l-20.86-51.66a1.15,1.15,0,0,0-1.5-.63h0a1.13,1.13,0,0,0-.63,1.49l20.86,51.66A1.15,1.15,0,0,0,314,213.25Z"/><path class="cls-5" d="M330,185.22H310.27a.91.91,0,0,1-.91-.91h0a.91.91,0,0,1,.91-.91H330a.91.91,0,0,1,.91.91h0A.91.91,0,0,1,330,185.22Z"/><path class="cls-7" d="M290.52,99.72s-5.13,8.38-6.08,23.44c0,0,3.72-.35,3.71-.89S290.52,99.72,290.52,99.72Z"/><polygon class="cls-8" points="255.57 211.1 248.04 210.56 250.53 201.89 257.74 202.41 255.57 211.1"/><polygon class="cls-8" points="289.39 211.03 281.33 210.45 282.35 202.15 290.4 202.73 289.39 211.03"/><path class="cls-9" d="M237.64,216.23a1,1,0,0,0,.3.82,12.72,12.72,0,0,0,3,.53c3.06-.16,8.91-.8,13-1a2.62,2.62,0,0,0,1.71-.77,2.44,2.44,0,0,0,.74-1.67c0-2.27.08-5.4.08-5.4l-7.7-.76a106.21,106.21,0,0,1-9.52,5.72c-1.33.63-1.48,1.17-1.58,2.54Z"/><path class="cls-10" d="M292.58,131.29s-4.75,13.64-4.42,16.3a19.18,19.18,0,0,0,3.34,8.51l23.29-.18a10.79,10.79,0,0,0,10.55-12.61l0-.1c-.11-.62-.2-1.25-.29-1.88l-1.6-11.8c-7.23,4.69-20.35,6.62-31.84,3.52Z"/><path class="cls-7" d="M273.42,132.23l8.57-7.51,6.48-8.12,3.84,9.1a29.46,29.46,0,0,1-17.48,12.61l-1-3.05Z"/><path class="cls-11" d="M248.9,204.5c0-1.3,7.47-29.73,11.68-41.68a13.49,13.49,0,0,1,6.71-7.58l25-12.42,16.35,13.88-34.41,14.2c-1.34,9-7.7,22.09-15,34.48Z"/><path class="cls-12" d="M255.09,205c1-8.28,7.45-15.68,10.37-19.8,3.7-5.24,1.44-14,3-18.32a14.75,14.75,0,0,1,3.18-4.46A27.87,27.87,0,0,1,284.05,155c6.38-1.87,10.16-4.57,14.13-7.2l10.48,8.9-34.41,14.2c-1.34,9-7.7,22.09-15,34.48Z"/><path class="cls-9" d="M271,217.56a1,1,0,0,0,.3.81,12.72,12.72,0,0,0,3,.53c3.06-.16,8.92-.8,13-1a2.62,2.62,0,0,0,1.71-.77,2.43,2.43,0,0,0,.73-1.66c0-2.28.08-5.41.08-5.41l-8.55-.19a90.9,90.9,0,0,1-8.66,5.16c-1.34.62-1.48,1.16-1.59,2.54Z"/><path class="cls-9" d="M296.62,69.83s-6.63,3-1.44,9.17,1.44-9.17,1.44-9.17Z"/><path class="cls-13" d="M317.48,96.36a5.59,5.59,0,0,0-3.13-4.62,11.15,11.15,0,0,0-6.86-.61c-7.17,1.29-10.75,4.25-10.75,4.25l.34,5.67,7.65,3.64L319.8,93.41Z"/><path class="cls-8" d="M295.39,75.11a8.05,8.05,0,0,1,8.82-7.67h0a8.08,8.08,0,0,1,7.28,8.37c-.1,2.46-.21,5.16-.3,7.49a5.74,5.74,0,0,1-6.3,5.48l-4.44-.44a5.92,5.92,0,0,1-5.34-6.14c.08-2.17.19-4.7.28-7.09Z"/><polygon class="cls-8" points="314.5 95.64 309.7 83.17 300.97 87.06 303.39 99.07 314.5 95.64 314.5 95.64"/><path class="cls-9" d="M306.85,74.16s-1,7.35,4.74,7.52c0,0,2.94-6.62,3.27-10,.63-6.32-12-7.58-17.15-4.89s-2,7.54,9.14,7.39Z"/><path class="cls-14" d="M302.25,93.41c2.89,4.37,9.83.41,11-1.14.18-.24,3.23,1.54,3.63,1.82,6.09,4.2,6.89,22.25,8,28.75.51,3,3.35,13.21,1.84,15.85-.51.87-5.26.2-6.2.37-4,.71-21.78,2.09-24.23-.64s-.61-7.75-1.07-11A77.28,77.28,0,0,1,297.4,96Z"/><path class="cls-15" d="M295.66,117.18c3.45,9.21,29.2-.68,26.27-5.1-4.08-6.18,1.8,4.26,2.88,10.76.51,3,3.35,13.21,1.84,15.85-.51.87-2.54,7.94-3.49,8-12.6.46-32,1.17-32.85-2.39-1.23-5,4.42-13.6,4.84-16.81C296.22,119.13,295.66,117.18,295.66,117.18Z"/><path class="cls-8" d="M311.47,78.61a2.57,2.57,0,1,0,1.28,2.9,2.27,2.27,0,0,0-1.28-2.9Z"/><path class="cls-9" d="M295.08,82.2c-.37-.65-1.94,9.9,4.4,10.44s9-2.06,9.44-14.18c0,0-2.54,7.37-6.25,7.48-7.74.23-7.14-3-7.59-3.74Z"/><path class="cls-11" d="M319.68,154.71,317,150.66l-17.86-1.28L286,155.64A11.34,11.34,0,0,0,279.49,166l.09,11,0,0-.71,30.56,11.72-.33c3.71-14.69,5.16-27.18,4-38.57Z"/><path class="cls-12" d="M325.34,143.31l0-.1c-.11-.62-.2-1.25-.29-1.88l-1.6-11.8c-7.23,4.69-6.39,12.18-6.06,14.84.62,5-4.4,6.89-4.4,6.89l.09.24-12.63,8.6c-4,1.89-9.86,1.09-9.83,5.5l-1,8.5-3.38,33.22,4.36-.12c3.71-14.69,5.16-27.18,4-38.57l25.06-13.92h0A10.79,10.79,0,0,0,325.34,143.31Z"/><path class="cls-16" d="M299.31,93.79s-3.17,16.13-3.25,26-4.5,30.09-4.5,30.09c-1.59-3-7.24-2.07-7.75-4.77,0,0,4.95-32.57,5.83-41.11C290.49,95.69,293.66,96.06,299.31,93.79Z"/><path class="cls-9" d="M302.73,73.93s-14.06-1.1-10.79-7.33c3-5.76,12.86,6.38,14.93,4.16Z"/><path class="cls-8" d="M289.64,134.39s-3-2-4.84-1c-.9.46-2.4.49-3.74,1.23a12.48,12.48,0,0,0-3.07,3.08,2.48,2.48,0,0,0,1.86,2.45c.66.13,2.65-1.64,2.65-1.64a11.5,11.5,0,0,0,6.38.08Z"/><path class="cls-8" d="M275.89,134.22s-2.8-2.24-4.75-1.4c-.93.41-2.43.32-3.82,1a12.46,12.46,0,0,0-3.29,2.84,2.49,2.49,0,0,0,1.67,2.58c.66.18,2.77-1.44,2.77-1.44a11.51,11.51,0,0,0,6.36.54Z"/><polygon class="cls-8" points="289.64 134.38 299 133.7 299.37 138.69 287.64 138.04 289.64 134.38"/><rect class="cls-3" x="262.53" y="137.19" width="30.66" height="1.95"/><path class="cls-7" d="M331.21,126.71a121.71,121.71,0,0,0-1.33-15.5c-1-6.51-2.33-11.39-4.61-14.08-2-2.36-3.91-2.73-6.46-4l-4.46-1.41c-2.73,12.68-4.61,24.78-3.43,37.34L296,132l0,7.1h23l4.59-1.49,4.35-2.44A12.08,12.08,0,0,0,331.21,126.71Z"/><path class="cls-14" d="M270.34,139.14H235.15l-10.61-23.66h34.38a1.27,1.27,0,0,1,1.14.73Z"/><path class="cls-5" d="M269,139.14H233.79l-10.13-22.57a.78.78,0,0,1,.71-1.09h33.49a.8.8,0,0,1,.71.45Z"/><path class="cls-7" d="M310.56,123.8s-.3,12.58-3.2,18.37c-1.29,2.56-8,9.38-8,9.38s25.72,2.54,26.54-7.83a201.4,201.4,0,0,1,3.32-22.46Z"/><path class="cls-14" d="M247.35,127.46c.42,1.47-.72,2.67-2.55,2.67a4.3,4.3,0,0,1-4.06-2.67c-.42-1.48.72-2.67,2.55-2.67A4.28,4.28,0,0,1,247.35,127.46Z"/><path class="cls-7" d="M331.21,126.71a121.71,121.71,0,0,0-1.33-15.5c-1-6.51-2.33-11.39-4.61-14.08-2-2.36-3.91-2.73-6.46-4l-4.46-1.41c17.08,8.75,11.55,27.48,12.74,40-2.75,1.46-4,1-10.44,2.27-3.42,1-6.76,2.55-11.9,3.46-3.85-.82-6-1.08-8.69-.32v1.95h23l4.59-1.49,4.35-2.44A12.08,12.08,0,0,0,331.21,126.71Z"/><path class="cls-16" d="M310.46,129.2s7.41-2.58,10.25-2.58c0,0-8.62-.24-10.17.12Z"/><path class="cls-11" d="M335.28,142.82H208.37a1.85,1.85,0,0,1-1.84-1.84h0a1.85,1.85,0,0,1,1.84-1.84H335.28a1.85,1.85,0,0,1,1.84,1.84h0A1.85,1.85,0,0,1,335.28,142.82Z"/><path class="cls-5" d="M276.24,222.15h0a1.64,1.64,0,0,1-.86-2.2L308,142.1a1.75,1.75,0,0,1,2.2-1h0a1.64,1.64,0,0,1,.85,2.2l-32.58,77.85A1.74,1.74,0,0,1,276.24,222.15Z"/></g></g></svg>