<?xml version="1.0" encoding="UTF-8"?> <!-- Generator: Adobe Illustrator 24.0.2, SVG Export Plug-In . SVG Version: 6.00 Build 0) --> <svg xmlns="http://www.w3.org/2000/svg" xmlns:xlink="http://www.w3.org/1999/xlink" version="1.1" id="Layer_1" x="0px" y="0px" width="544px" height="422px" viewBox="0 0 544 422" style="enable-background:new 0 0 544 422;" xml:space="preserve"> <style type="text/css"> .st0{opacity:0.4;fill:none;stroke:url(#SVGID_1_);stroke-width:2.1627;stroke-linecap:round;stroke-linejoin:round;stroke-miterlimit:10;} .st1{fill:url(#SVGID_2_);stroke:url(#SVGID_3_);stroke-width:2.1627;stroke-miterlimit:10;} .st2{fill:url(#SVGID_4_);stroke:url(#SVGID_5_);stroke-width:2.1627;stroke-linejoin:round;stroke-miterlimit:10;} .st3{fill:url(#SVGID_6_);stroke:url(#SVGID_7_);stroke-width:2.1627;stroke-miterlimit:10;} .st4{fill:url(#SVGID_8_);stroke:#A2CDFF;stroke-width:2.1627;stroke-linejoin:round;stroke-miterlimit:10;} .st5{fill:url(#SVGID_9_);stroke:#A2CDFF;stroke-width:2.1627;stroke-linecap:round;stroke-linejoin:round;stroke-miterlimit:10;} .st6{opacity:0.4;fill:url(#SVGID_10_);} .st7{fill:none;stroke:url(#SVGID_11_);stroke-width:2.1627;stroke-linecap:round;stroke-linejoin:round;stroke-miterlimit:10;} .st8{opacity:0.4;fill:none;stroke:#8A9ADC;stroke-width:2.1627;stroke-linecap:round;stroke-linejoin:round;stroke-miterlimit:10;} .st9{opacity:0.2;fill:none;stroke:#8A9ADC;stroke-width:2.1627;stroke-linecap:round;stroke-linejoin:round;stroke-miterlimit:10;} .st10{fill:#1D252D;} .st11{opacity:0.3;fill:url(#SVGID_12_);} .st12{opacity:0.4;clip-path:url(#SVGID_14_);fill:url(#SVGID_15_);} .st13{opacity:0.2;clip-path:url(#SVGID_14_);} .st14{fill:#8A9ADC;} .st15{fill:none;stroke:#1D252D;stroke-width:2.1627;stroke-linecap:round;stroke-linejoin:round;stroke-miterlimit:10;} .st16{fill:none;stroke:#8A9ADC;stroke-width:2.1627;stroke-linecap:round;stroke-linejoin:round;stroke-miterlimit:10;} .st17{fill:none;stroke:#19242D;stroke-width:1.0813;stroke-linecap:round;stroke-linejoin:round;stroke-miterlimit:10;} .st18{clip-path:url(#SVGID_17_);} .st19{fill:url(#SVGID_18_);} .st20{fill:#FFBCB2;} .st21{fill:#FF8C83;} .st22{fill:none;stroke:#FF7A88;stroke-width:2.1627;stroke-linecap:round;stroke-linejoin:round;stroke-miterlimit:10;} .st23{fill:#8CD8EB;} .st24{fill:#5BC9E3;} .st25{fill:none;stroke:#FFFFFF;stroke-width:2.1627;stroke-linecap:round;stroke-linejoin:round;stroke-miterlimit:10;} .st26{fill:none;stroke:#00B0D6;stroke-width:2.1627;stroke-linecap:round;stroke-linejoin:round;stroke-miterlimit:10;} .st27{fill:#9EE6D7;} .st28{fill:#76DAC6;} .st29{fill:none;stroke:#40C9AD;stroke-width:2.1627;stroke-linecap:round;stroke-linejoin:round;stroke-miterlimit:10;} .st30{clip-path:url(#SVGID_20_);fill:none;stroke:#8A9ADC;stroke-width:2.1627;stroke-linecap:round;stroke-linejoin:round;stroke-miterlimit:10;} .st31{clip-path:url(#SVGID_22_);} .st32{fill:url(#SVGID_23_);} .st33{fill:url(#SVGID_24_);} .st34{fill:url(#SVGID_25_);} .st35{fill:url(#SVGID_26_);} .st36{clip-path:url(#SVGID_28_);fill:none;stroke:url(#SVGID_29_);stroke-width:2.1627;stroke-miterlimit:10;} .st37{opacity:0.6;fill:none;stroke:url(#SVGID_30_);stroke-width:2.1627;stroke-linecap:round;stroke-linejoin:round;stroke-miterlimit:10;} .st38{fill:url(#SVGID_31_);} .st39{fill:url(#SVGID_32_);} .st40{clip-path:url(#SVGID_34_);fill:none;stroke:url(#SVGID_35_);stroke-width:2.1627;stroke-miterlimit:10;} .st41{opacity:0.6;fill:none;stroke:url(#SVGID_36_);stroke-width:2.1627;stroke-linecap:round;stroke-linejoin:round;stroke-miterlimit:10;} .st42{fill:url(#SVGID_37_);} .st43{fill:url(#SVGID_38_);} .st44{fill:url(#SVGID_39_);} .st45{clip-path:url(#SVGID_41_);fill:none;stroke:url(#SVGID_42_);stroke-width:2.1627;stroke-miterlimit:10;} .st46{opacity:0.6;fill:none;stroke:url(#SVGID_43_);stroke-width:2.1627;stroke-linecap:round;stroke-linejoin:round;stroke-miterlimit:10;} .st47{fill:url(#SVGID_44_);} .st48{fill:url(#SVGID_45_);} .st49{fill:url(#SVGID_46_);} .st50{clip-path:url(#SVGID_48_);fill:none;stroke:url(#SVGID_49_);stroke-width:2.1627;stroke-miterlimit:10;} .st51{fill:url(#SVGID_50_);} .st52{fill:url(#SVGID_51_);} .st53{clip-path:url(#SVGID_53_);fill:none;stroke:url(#SVGID_54_);stroke-width:2.1627;stroke-miterlimit:10;} .st54{opacity:0.6;fill:none;stroke:url(#SVGID_55_);stroke-width:2.1627;stroke-linecap:round;stroke-linejoin:round;stroke-miterlimit:10;} .st55{fill:url(#SVGID_56_);} .st56{fill:url(#SVGID_57_);} .st57{clip-path:url(#SVGID_59_);fill:none;stroke:url(#SVGID_60_);stroke-width:2.1627;stroke-miterlimit:10;} .st58{opacity:0.6;fill:none;stroke:url(#SVGID_61_);stroke-width:2.1627;stroke-linecap:round;stroke-linejoin:round;stroke-miterlimit:10;} .st59{opacity:0.6;fill:none;stroke:url(#SVGID_62_);stroke-width:2.1627;stroke-linecap:round;stroke-linejoin:round;stroke-miterlimit:10;} .st60{opacity:0.6;fill:none;stroke:url(#SVGID_63_);stroke-width:2.1627;stroke-linecap:round;stroke-linejoin:round;stroke-miterlimit:10;} .st61{fill:url(#SVGID_64_);} .st62{fill:url(#SVGID_65_);} .st63{clip-path:url(#SVGID_67_);fill:none;stroke:url(#SVGID_68_);stroke-width:2.1627;stroke-miterlimit:10;} .st64{opacity:0.6;fill:none;stroke:url(#SVGID_69_);stroke-width:2.1627;stroke-linecap:round;stroke-linejoin:round;stroke-miterlimit:10;} .st65{opacity:0.6;fill:none;stroke:url(#SVGID_70_);stroke-width:2.1627;stroke-linecap:round;stroke-linejoin:round;stroke-miterlimit:10;} .st66{fill:url(#SVGID_71_);} .st67{fill:url(#SVGID_72_);} .st68{clip-path:url(#SVGID_74_);fill:none;stroke:url(#SVGID_75_);stroke-width:2.1627;stroke-miterlimit:10;} .st69{fill:url(#SVGID_76_);} .st70{fill:url(#SVGID_77_);} .st71{fill:url(#SVGID_78_);} .st72{clip-path:url(#SVGID_80_);fill:none;stroke:url(#SVGID_81_);stroke-width:2.1627;stroke-miterlimit:10;} .st73{opacity:0.6;fill:none;stroke:url(#SVGID_82_);stroke-width:2.1627;stroke-linecap:round;stroke-linejoin:round;stroke-miterlimit:10;} .st74{opacity:0.6;fill:none;stroke:url(#SVGID_83_);stroke-width:2.1627;stroke-linecap:round;stroke-linejoin:round;stroke-miterlimit:10;} .st75{clip-path:url(#SVGID_85_);fill:none;stroke:#8A9ADC;stroke-width:2.1627;stroke-linecap:round;stroke-linejoin:round;stroke-miterlimit:10;} .st76{fill:#FFFFFF;} </style> <g> <g> <g> <linearGradient id="SVGID_1_" gradientUnits="userSpaceOnUse" x1="350.6654" y1="259.4629" x2="537.2333" y2="259.4629"> <stop offset="0" style="stop-color:#6FA0FF"></stop> <stop offset="0.2609" style="stop-color:#89B5FF"></stop> <stop offset="0.8159" style="stop-color:#CCECFF"></stop> <stop offset="1" style="stop-color:#E3FFFF"></stop> </linearGradient> <path class="st0" d="M351.7,153.6c2.5,1.5,4.8,3,6.9,4.6c34.6-4.2,72,1.4,99,17c41.2,23.8,42.5,61.9,3.9,86.4 c15.6,3,30.3,8,42.7,15.2c42.3,24.4,42.6,64.1,0.5,88.5"></path> <linearGradient id="SVGID_2_" gradientUnits="userSpaceOnUse" x1="137.6075" y1="183.2305" x2="101.3" y2="152.9021"> <stop offset="0" style="stop-color:#336AFF;stop-opacity:0"></stop> <stop offset="0.3693" style="stop-color:#336AFF;stop-opacity:0.4"></stop> <stop offset="1" style="stop-color:#E3FFFF;stop-opacity:0.8"></stop> </linearGradient> <linearGradient id="SVGID_3_" gradientUnits="userSpaceOnUse" x1="116.3816" y1="177.0712" x2="144.5748" y2="177.0712"> <stop offset="0" style="stop-color:#A2CDFF;stop-opacity:0.8"></stop> <stop offset="1" style="stop-color:#336AFF;stop-opacity:0.2"></stop> </linearGradient> <path class="st1" d="M117.5,182.3l0.1-45.8c0,11.6,7.6,23.1,22.9,32c1,0.6,2,1.1,3,1.7l-0.1,45.8c-1-0.5-2-1.1-3-1.7 C125.1,205.4,117.4,193.8,117.5,182.3z"></path> <linearGradient id="SVGID_4_" gradientUnits="userSpaceOnUse" x1="461.4284" y1="217.7966" x2="506.5342" y2="217.7966"> <stop offset="1.282051e-03" style="stop-color:#336AFF;stop-opacity:0"></stop> <stop offset="0.3337" style="stop-color:#336AFF;stop-opacity:0.4"></stop> <stop offset="1" style="stop-color:#E3FFFF;stop-opacity:0.8"></stop> </linearGradient> <linearGradient id="SVGID_5_" gradientUnits="userSpaceOnUse" x1="460.3471" y1="217.7966" x2="490.602" y2="217.7966"> <stop offset="5.008013e-03" style="stop-color:#336AFF;stop-opacity:0.2"></stop> <stop offset="1" style="stop-color:#A2CDFF;stop-opacity:0.8"></stop> </linearGradient> <path class="st2" d="M489.5,174l-0.1,45.8c0,15-9.4,30-28,41.9l0.1-45.8C480.2,204,489.5,189,489.5,174z"></path> <linearGradient id="SVGID_6_" gradientUnits="userSpaceOnUse" x1="148.8634" y1="262.0423" x2="78.8653" y2="243.0343"> <stop offset="9.238782e-02" style="stop-color:#336AFF;stop-opacity:0"></stop> <stop offset="0.2728" style="stop-color:#336AFF;stop-opacity:0.4"></stop> <stop offset="1" style="stop-color:#E3FFFF;stop-opacity:0.8"></stop> </linearGradient> <linearGradient id="SVGID_7_" gradientUnits="userSpaceOnUse" x1="96.3933" y1="254.229" x2="138.3191" y2="254.229"> <stop offset="0" style="stop-color:#A2CDFF;stop-opacity:0.8"></stop> <stop offset="1" style="stop-color:#336AFF;stop-opacity:0.2"></stop> </linearGradient> <path class="st3" d="M97.5,256.7l0.1-45.8c0,11.6,7.6,23.1,22.9,32c5.1,3,10.8,5.4,16.8,7.4l-0.1,45.8c-6-2-11.6-4.4-16.8-7.4 C105.1,279.9,97.4,268.3,97.5,256.7z"></path> <linearGradient id="SVGID_8_" gradientUnits="userSpaceOnUse" x1="364.9108" y1="329.6261" x2="622.3287" y2="329.6261"> <stop offset="3.766026e-03" style="stop-color:#336AFF;stop-opacity:0"></stop> <stop offset="0.2198" style="stop-color:#336AFF;stop-opacity:0.2"></stop> <stop offset="1" style="stop-color:#E3FFFF;stop-opacity:0.6"></stop> </linearGradient> <path class="st4" d="M536.2,275.6l-0.1,45.8c0,15.9-10.5,31.8-31.4,43.9c-38,22.1-97.4,24.2-139.7,6.4L365,326 c42.3,17.8,101.8,15.6,139.7-6.4C525.6,307.4,536.1,291.5,536.2,275.6z"></path> <linearGradient id="SVGID_9_" gradientUnits="userSpaceOnUse" x1="127.1974" y1="340.6225" x2="418.8556" y2="340.6225"> <stop offset="0" style="stop-color:#89B6FF;stop-opacity:0"></stop> <stop offset="0.1645" style="stop-color:#5084FF;stop-opacity:0.2"></stop> <stop offset="0.3063" style="stop-color:#5084FF;stop-opacity:0.4"></stop> <stop offset="0.4757" style="stop-color:#89B6FF;stop-opacity:0.4"></stop> <stop offset="0.6724" style="stop-color:#5084FF;stop-opacity:0.2"></stop> <stop offset="0.8309" style="stop-color:#5084FF;stop-opacity:0"></stop> </linearGradient> <path class="st5" d="M127.2,325l0.1-45.8c-0.1,19.7,13,39.5,39,54.5c51.8,29.9,135.5,29.9,187,0c4.3-2.5,8.2-5.1,11.7-7.8 l-0.1,45.8c-3.6,2.7-7.4,5.3-11.7,7.8c-51.5,29.9-135.2,29.9-187,0C140.2,364.5,127.1,344.8,127.2,325z"></path> <linearGradient id="SVGID_10_" gradientUnits="userSpaceOnUse" x1="42.2668" y1="224.0043" x2="555.9153" y2="224.0043"> <stop offset="0.1192" style="stop-color:#8A9ADC;stop-opacity:0.9"></stop> <stop offset="0.356" style="stop-color:#8A9ADC;stop-opacity:0.2"></stop> <stop offset="0.5192" style="stop-color:#8A9ADC;stop-opacity:0.6"></stop> <stop offset="0.5985" style="stop-color:#8A9ADC;stop-opacity:0"></stop> <stop offset="0.6833" style="stop-color:#8A9ADC;stop-opacity:0.2"></stop> <stop offset="1" style="stop-color:#8A9ADC;stop-opacity:0.9"></stop> </linearGradient> <path class="st6" d="M457.6,129.4c41.2,23.8,42.5,61.9,3.9,86.4c15.6,3,30.3,8,42.7,15.2c42.3,24.4,42.6,64.1,0.5,88.5 c-38,22.1-97.4,24.2-139.7,6.4c-3.6,2.7-7.4,5.3-11.7,7.8c-51.5,29.9-135.2,29.9-187,0c-39.1-22.6-48.8-55.7-29.1-83.5 c-6-2-11.6-4.4-16.8-7.4c-30.4-17.5-30.5-46-0.4-63.5c6.9-4,14.9-7.1,23.4-9.3c-1-0.5-2-1.1-3-1.7c-30.4-17.5-30.5-46-0.4-63.5 s79.2-17.5,109.6,0c1.7,1,3.2,1.9,4.7,3c27-15.7,70.4-15.7,97.3-0.1c2.5,1.5,4.8,3,6.9,4.6C393.2,108.2,430.7,113.8,457.6,129.4z "></path> <linearGradient id="SVGID_11_" gradientUnits="userSpaceOnUse" x1="96.5231" y1="224.0043" x2="537.2333" y2="224.0043"> <stop offset="0" style="stop-color:#6FA0FF"></stop> <stop offset="0.2609" style="stop-color:#89B5FF"></stop> <stop offset="0.8159" style="stop-color:#CCECFF"></stop> <stop offset="1" style="stop-color:#E3FFFF"></stop> </linearGradient> <path class="st7" d="M457.6,129.4c41.2,23.8,42.5,61.9,3.9,86.4c15.6,3,30.3,8,42.7,15.2c42.3,24.4,42.6,64.1,0.5,88.5 c-38,22.1-97.4,24.2-139.7,6.4c-3.6,2.7-7.4,5.3-11.7,7.8c-51.5,29.9-135.2,29.9-187,0c-39.1-22.6-48.8-55.7-29.1-83.5 c-6-2-11.6-4.4-16.8-7.4c-30.4-17.5-30.5-46-0.4-63.5c6.9-4,14.9-7.1,23.4-9.3c-1-0.5-2-1.1-3-1.7c-30.4-17.5-30.5-46-0.4-63.5 s79.2-17.5,109.6,0c1.7,1,3.2,1.9,4.7,3c27-15.7,70.4-15.7,97.3-0.1c2.5,1.5,4.8,3,6.9,4.6C393.2,108.2,430.7,113.8,457.6,129.4z "></path> </g> <g> <ellipse transform="matrix(2.858918e-03 -1 1 2.858918e-03 8.2892 533.2396)" class="st8" cx="271.5" cy="262.5" rx="65.8" ry="113.2"></ellipse> <ellipse transform="matrix(2.858918e-03 -1 1 2.858918e-03 8.2892 533.2396)" class="st9" cx="271.5" cy="262.5" rx="72.6" ry="124.8"></ellipse> <path class="st10" d="M374.2,75.9l-0.1,0c-0.5-14.9-11-30.4-30.6-41.8c-40-23.2-104.8-23.2-144.6,0C179.1,45.6,169,60.7,169,75.9 c0,0,0,0,0,0c0,0,0,0,0,0.1l0,0v184.3c0,15.9,9.3,32,30.4,44.2c40.1,23.1,105,23.1,144.8,0c20.9-12.2,29.9-27.5,29.9-44.2 l0.4-13.8V75.9H374.2z"></path> <linearGradient id="SVGID_12_" gradientUnits="userSpaceOnUse" x1="341.2081" y1="130.46" x2="201.8474" y2="21.5795"> <stop offset="0" style="stop-color:#8A9ADC;stop-opacity:0"></stop> <stop offset="1" style="stop-color:#8A9ADC;stop-opacity:0.9"></stop> </linearGradient> <path class="st11" d="M343.4,34.1c40,23.2,40.2,60.7,0.5,83.9s-104.3,23.2-144.3,0s-40.2-60.7-0.5-83.9S303.5,10.9,343.4,34.1z"></path> <g> <defs> <path id="SVGID_13_" d="M373.6,75.9c0.1,15.2-9.7,30.3-29.6,41.9c-39.8,23.1-104.6,23.1-144.7,0C179.2,106.2,169,91,169,75.8 c0,0,0,0,0,0.1l0,0v184.3c0,15.9,9.2,32,30.3,44.2c40.1,23.1,104.9,23.1,144.7,0c20.9-12.2,29.4-27.5,29.4-44.2l0-13.8V75.9 H373.6z"></path> </defs> <clipPath id="SVGID_14_"> <use xlink:href="#SVGID_13_" style="overflow:visible;"></use> </clipPath> <linearGradient id="SVGID_15_" gradientUnits="userSpaceOnUse" x1="168.9888" y1="198.8189" x2="374.4446" y2="198.8189"> <stop offset="0" style="stop-color:#8A9ADC;stop-opacity:0.9"></stop> <stop offset="0.4084" style="stop-color:#8A9ADC;stop-opacity:0"></stop> <stop offset="0.7143" style="stop-color:#8A9ADC;stop-opacity:0.6"></stop> <stop offset="0.7611" style="stop-color:#8A9ADC;stop-opacity:0"></stop> <stop offset="1" style="stop-color:#8A9ADC;stop-opacity:0.9"></stop> </linearGradient> <path class="st12" d="M374.2,75.9c0.1,15.2-9.9,30.3-29.8,41.9c-39.8,23.1-104.9,23.1-144.9,0c-20.1-11.6-29.4-26.8-30.5-42 c0,0,0,0,0,0.1l0,0v184.3c0,15.9,9.3,32,30.4,44.2c40.1,23.1,105,23.1,144.8,0c20.9-12.2,29.9-27.5,29.9-44.2l0.4-13.8V75.9 H374.2z"></path> <g class="st13"> <g> <path class="st14" d="M374.4,122.4c0.6,5.5,0.1,11.4-1.7,16.8c-1.8,5.5-4.6,10.7-8.3,15.1c-3.7,4.5-8,8.4-12.6,11.7 c-4.6,3.3-9.6,6.2-14.7,8.6c-10.2,4.9-21,8.3-32,10.6c-11,2.3-22.2,3.3-33.5,3.4c-11.2,0-22.5-1-33.5-3.3 c-11-2.3-21.9-5.6-32.1-10.5c-5.1-2.5-10.1-5.3-14.7-8.6c-4.6-3.4-9-7.3-12.6-11.8c-0.2-0.3-0.5-0.6-0.7-0.8l-0.6-0.9L176,151 c-0.8-1.2-1.6-2.5-2.3-3.7c-0.7-1.3-1.4-2.5-1.9-3.9l-0.8-2c-0.2-0.7-0.5-1.4-0.7-2.1c-1.9-5.5-2.4-11.3-1.7-16.9 c0-0.4,0.4-0.7,0.8-0.6c0.3,0,0.5,0.3,0.6,0.6l0,0.1c0.3,1.3,0.4,2.7,0.7,4c0.2,0.7,0.3,1.3,0.4,1.9l0.6,1.9 c0.2,0.6,0.4,1.3,0.6,1.9c0.2,0.6,0.4,1.2,0.7,1.8l0.8,1.8c0.2,0.6,0.5,1.2,0.8,1.8c2.4,4.6,5.5,8.8,9.1,12.4 c3.6,3.7,7.7,6.9,12.1,9.7c4.3,2.8,9,5.3,13.8,7.5c9.6,4.3,19.9,7.2,30.3,9.2c5.2,1,10.5,1.7,15.8,2.2 c5.3,0.5,10.6,0.8,15.9,0.8c5.3,0,10.6-0.2,15.9-0.6c1.3-0.1,2.7-0.2,4-0.4l4-0.5l3.9-0.6c1.3-0.2,2.6-0.4,3.9-0.7 c10.4-1.9,20.7-4.8,30.4-9.1c4.8-2.1,9.5-4.6,13.8-7.5c4.4-2.8,8.5-6,12.1-9.7c3.6-3.7,6.6-7.9,8.9-12.6 c0.3-0.6,0.6-1.2,0.8-1.8c0.2-0.6,0.5-1.2,0.8-1.8l0.6-1.9c0.1-0.3,0.2-0.6,0.3-0.9l0.2-1l0.5-1.9l0.4-2l0.2-1l0.1-1l0.3-2 l0,0c0.1-0.4,0.5-0.7,0.9-0.7C374.1,121.7,374.4,122,374.4,122.4z"></path> </g> <g> <path class="st14" d="M374.4,166.7c0.6,5.5,0.1,11.4-1.7,16.8c-1.8,5.5-4.6,10.7-8.3,15.1c-3.7,4.5-8,8.4-12.6,11.7 c-4.6,3.3-9.6,6.2-14.7,8.6c-10.2,4.9-21,8.3-32,10.6c-11,2.3-22.2,3.3-33.5,3.4c-11.2,0-22.5-1-33.5-3.3 c-11-2.3-21.9-5.6-32.1-10.5c-5.1-2.5-10.1-5.3-14.7-8.6c-4.6-3.4-9-7.3-12.6-11.8c-0.2-0.3-0.5-0.6-0.7-0.8l-0.6-0.9 l-1.3-1.8c-0.8-1.2-1.6-2.5-2.3-3.7c-0.7-1.3-1.4-2.5-1.9-3.9l-0.8-2c-0.2-0.7-0.5-1.4-0.7-2.1c-1.9-5.5-2.4-11.3-1.7-16.9 c0-0.4,0.4-0.7,0.8-0.6c0.3,0,0.5,0.3,0.6,0.6l0,0.1c0.3,1.3,0.4,2.7,0.7,4c0.2,0.7,0.3,1.3,0.4,1.9l0.6,1.9 c0.2,0.6,0.4,1.3,0.6,1.9c0.2,0.6,0.4,1.2,0.7,1.8l0.8,1.8c0.2,0.6,0.5,1.2,0.8,1.8c2.4,4.6,5.5,8.8,9.1,12.4 c3.6,3.7,7.7,6.9,12.1,9.7c4.3,2.8,9,5.3,13.8,7.5c9.6,4.3,19.9,7.2,30.3,9.2c5.2,1,10.5,1.7,15.8,2.2 c5.3,0.5,10.6,0.8,15.9,0.8c5.3,0,10.6-0.2,15.9-0.6c1.3-0.1,2.7-0.2,4-0.4l4-0.5l3.9-0.6c1.3-0.2,2.6-0.4,3.9-0.7 c10.4-1.9,20.7-4.8,30.4-9.1c4.8-2.1,9.5-4.6,13.8-7.5c4.4-2.8,8.5-6,12.1-9.7c3.6-3.7,6.6-7.9,8.9-12.6 c0.3-0.6,0.6-1.2,0.8-1.8c0.2-0.6,0.5-1.2,0.8-1.8l0.6-1.9c0.1-0.3,0.2-0.6,0.3-0.9l0.2-1l0.5-1.9l0.4-2l0.2-1l0.1-1l0.3-2 l0,0c0.1-0.4,0.5-0.7,0.9-0.7C374.1,166.1,374.4,166.4,374.4,166.7z"></path> </g> <g> <path class="st14" d="M374.3,211.7c0.6,5.6-0.1,11.4-1.9,16.9c-1.8,5.5-4.8,10.6-8.4,15.1c-3.6,4.5-7.9,8.5-12.6,11.9 c-2.3,1.7-4.8,3.3-7.2,4.6c-1.2,0.7-2.5,1.4-3.7,2.1c-1.3,0.6-2.5,1.3-3.8,1.9c-10.3,4.9-21.2,8.3-32.2,10.5 c-5.5,1.1-11.1,2-16.7,2.5c-5.6,0.5-11.3,0.8-16.9,0.8c-5.6,0-11.3-0.3-16.9-0.9c-5.6-0.6-11.2-1.4-16.7-2.6 c-11.1-2.3-21.9-5.8-32.2-10.8l-3.8-2l-3.7-2.1c-2.5-1.5-4.9-3.1-7.2-4.9c-4.6-3.6-8.7-7.8-12.2-12.4 c-3.4-4.7-6.1-9.9-7.8-15.4c-1.7-5.5-2.5-11.3-1.8-16.9c0.1-0.4,0.5-0.7,0.9-0.6c0.3,0,0.7,0.3,0.7,0.6v0 c1.1,10.8,6.5,20.3,13.4,28.1c3.4,3.9,7.3,7.3,11.5,10.2c2.1,1.5,4.3,2.9,6.6,4.1l3.5,1.9l3.6,1.7c9.6,4.4,19.9,7.4,30.3,9.4 c5.2,1,10.5,1.8,15.8,2.3c5.3,0.5,10.7,0.8,16,0.8c5.3,0,10.7-0.1,16-0.6c5.3-0.4,10.6-1.1,15.9-2c10.5-1.9,20.8-4.7,30.5-9 c9.7-4.3,18.8-9.8,26-17.3c1.8-1.9,3.5-3.9,5-6c1.5-2.1,2.9-4.3,4-6.7c2.3-4.7,3.9-9.8,4.5-15.2c0.1-0.4,0.4-0.8,0.9-0.7 C373.9,211,374.2,211.3,374.3,211.7z"></path> </g> <path class="st14" d="M264.7,186.2l3,3.2l0.8,5.1v27.1l-1.9,2.3l-2.8,2.1c0,0,1.3,6.3,1.7,6.5c0.1,0,0.5,0.1,1,0.1 c5.7,0.3,10.7-4.3,10.7-10v-32.9c0-5.4-4.6-9.9-10-10l-1.4,0L264.7,186.2z"></path> <path class="st14" d="M360.6,194.1c-0.7,0.8-1.5,1.5-2.3,2.2c-4.1,3.9-6.5,9.1-6.5,14.7v30.7c0,5.3,6.7,7.8,10.2,3.9 c1.4-1.5,2.6-3.2,3.7-5c4.9-8,7.7-16.2,7.7-25v-52.9C373.4,174,369.6,184.6,360.6,194.1z"></path> </g> </g> <g> <g> <path class="st15" d="M169.3,215.7c0,15.9,9.1,32,30.1,44.2c40.1,23.1,104.8,23.1,144.6,0c2.9-1.7,5.6-3.5,8-5.3 c3.2-2.5,5.5-4.1,9.1-7.8"></path> <path class="st8" d="M169.3,207.4c0,15.9,9.1,32,30.1,44.2c40.1,23.1,104.8,23.1,144.6,0c2.9-1.7,5.6-3.5,8-5.3 c0.9-0.5,1.2-1,1.2-1"></path> <path class="st15" d="M352.1,210c-2.5,1.8-5.1,3.6-8,5.3c-18.7,10.9-42.8,16.6-67.4,17.3l-10.8-0.2"></path> <path class="st8" d="M276.6,224.3c24.5-0.7,48.7-6.4,67.4-17.3c2.9-1.7,5.6-3.5,8-5.3c2.3-1.7,5.8-4.7,7.1-6"></path> <g> <path class="st16" d="M373.6,215.6c0,8.8-2.8,17-7.8,25c-1.1,1.8-2.5,3.5-3.9,5c-3.5,3.9-10.2,1.4-10.2-3.9v-30.7 c0-5.6,2.5-10.9,6.6-14.7c0.8-0.7,1.6-1.5,2.3-2.2c9-9.5,12.9-20.1,12.9-31.3"></path> </g> <path class="st17" d="M373.6,207.4c0,10.3-3.2,20-10.5,28.8c-0.8,0.9-2.2,0.4-2.2-0.8v-29.1c0-2.3,0.7-4.6,2.2-6.4 c7.3-8.8,10.6-18.5,10.6-28.8"></path> </g> <path class="st15" d="M373.6,75.6c0,16.7-8.7,32.1-29.6,44.2c-39.8,23.1-104.6,23.1-144.6,0c-21-12.2-30.1-28.3-30.1-44.2"></path> <path class="st15" d="M373.6,126.4c0,16.7-8.1,31.9-29.6,44.2c-18.7,10.7-42.8,16.6-67.4,17.3"></path> <path class="st16" d="M373.6,75.9c-0.1-15.2-10-30.3-30.1-41.9c-40.1-23.1-104.8-23.1-144.6,0C179,45.6,169,60.8,169.1,75.9H169 v184.3c0,15.9,9.2,32,30.3,44.2c40.1,23.1,104.9,23.1,144.7,0c20.9-12.2,29.4-27.5,29.4-44.2l0-13.8V75.9H373.6z"></path> <path class="st16" d="M373.6,73.8c0,16.7-8.7,32.1-29.6,44.2c-39.8,23.1-104.6,23.1-144.6,0c-21-12.2-30.1-28.3-30.1-44.2"></path> <path class="st8" d="M373.6,118.2c0,16.7-8.7,32.1-29.6,44.2c-18.7,10.9-42.8,16.6-67.4,17.3l-10.8-0.3"></path> <path class="st17" d="M169.3,126.5c0,15.9,9.1,32,30.1,44.2c18.2,10.5,41.6,16.3,65.3,17.2c1.8,0.1,3.2,1.6,3.2,3.4v29.6 c0,1.9-1.6,3.5-3.5,3.4c-23.7-1-46.9-6.7-65-17.2c-21-12.2-30.1-28.3-30.1-44.2"></path> <path class="st16" d="M169.3,118.2c0,15.9,9.1,32,30.1,44.2c16.9,9.8,41.5,15.8,67.7,17.1c5.5,0.3,10.1,4.8,10.1,10.4V222 c0,5.9-5.2,10.6-11.1,10.4c-29.9-1.2-49.5-7.2-66.6-17.1c-21-12.2-30.2-28.3-30.2-44.2"></path> </g> <ellipse transform="matrix(2.520573e-03 -1 1 2.520573e-03 194.8239 347.355)" class="st16" cx="271.5" cy="76" rx="44.5" ry="81.6"></ellipse> <g> <defs> <path id="SVGID_16_" d="M482.6,66.8H373.4v82.1l0.1,22.1c0,10.3-3.3,20-10.7,28.8c-1.5,1.8-2.4,4.1-2.4,6.4v29.1 c0,1.1,1.6,1.6,2.4,1l119.8-59.2V66.8z"></path> </defs> <clipPath id="SVGID_17_"> <use xlink:href="#SVGID_16_" style="overflow:visible;"></use> </clipPath> <g class="st18"> <linearGradient id="SVGID_18_" gradientUnits="userSpaceOnUse" x1="360.9626" y1="228.7873" x2="385.0294" y2="228.7873"> <stop offset="0.1361" style="stop-color:#4680C1"></stop> <stop offset="1" style="stop-color:#4680C1;stop-opacity:0.4"></stop> </linearGradient> <path class="st19" d="M372,219.5c-1,4.3-8.1,15.8-11,18.7c0-7.9-0.2-18.2-0.2-18.2L372,219.5z"></path> <polygon class="st20" points="415.9,92.8 296.9,162 289.7,157.8 282.7,161.9 272.7,156.1 279.7,152.1 272.5,147.9 391.6,78.7 "></polygon> <polygon class="st21" points="415.9,92.8 415.9,116.8 296.9,186 296.9,162 "></polygon> <polygon class="st22" points="415.9,92.8 415.9,116.8 296.9,186 289.7,157.8 282.7,161.9 272.7,156.1 279.7,152.1 272.5,147.9 391.6,78.7 "></polygon> <polygon class="st23" points="476.7,97 331,181.7 323.8,177.5 316.8,181.6 306.8,175.8 313.8,171.7 306.6,167.6 452.4,82.9 "></polygon> <polygon class="st24" points="476.7,97 476.7,121 330.9,205.7 331,181.7 "></polygon> <line class="st25" x1="415.9" y1="92.8" x2="296.9" y2="162"></line> <polygon class="st26" points="476.7,97 476.7,121 330.9,205.7 323.8,177.5 316.8,181.6 306.8,175.8 313.8,171.7 306.6,167.6 452.4,82.9 "></polygon> <polygon class="st27" points="448.9,152.6 343.6,213.8 336.4,209.6 329.4,213.7 319.4,207.9 326.4,203.9 319.2,199.7 424.5,138.5 "></polygon> <line class="st25" x1="476.7" y1="97" x2="331" y2="181.6"></line> <polygon class="st28" points="448.9,152.6 448.8,176.6 343.6,237.8 343.6,213.8 "></polygon> <polygon class="st29" points="448.9,152.6 448.8,176.6 343.6,237.4 336.4,209.6 329.4,213.7 319.4,207.9 326.4,203.9 319.2,199.7 424.5,138.5 "></polygon> <line class="st25" x1="448.9" y1="152.6" x2="343.6" y2="213.8"></line> </g> </g> <g> <defs> <path id="SVGID_19_" d="M367.5,224.4l8.6-5l-9.5,24l-13.7-1.7c0,0,0-42.6,0-42.4c0,0.2,13.9-121.5,13.9-121.5l17-0.2l-7,120.3 l-8.7,9.9L367.5,224.4z"></path> </defs> <clipPath id="SVGID_20_"> <use xlink:href="#SVGID_19_" style="overflow:visible;"></use> </clipPath> <path class="st30" d="M371.1,221.9c-1.7,4.9-4.5,9.7-8.2,14.2c-0.8,0.9-2.5,0.4-2.5-0.8v-29.1c0-2.3,1-4.6,2.5-6.4 c7.3-8.8,10.7-18.5,10.7-28.8l0.2-85"></path> </g> <g> <defs> <path id="SVGID_21_" d="M265,187.9c-23.8-0.9-47.3-6.7-65.5-17.2c-19.7-11.4-28.9-26.2-30.1-41l-0.2-3.2L16.8,206.2l-15,31.9 L1,361.8l53,15.8l212.3-153.8l0.2-0.1c1-0.6,2-1.7,2-2.9v-29.6C268.5,189.4,266.8,187.9,265,187.9z"></path> </defs> <clipPath id="SVGID_22_"> <use xlink:href="#SVGID_21_" style="overflow:visible;"></use> </clipPath> <g class="st31"> <linearGradient id="SVGID_23_" gradientUnits="userSpaceOnUse" x1="220.4184" y1="184.9777" x2="244.6451" y2="251.1098"> <stop offset="0" style="stop-color:#4680C1;stop-opacity:0"></stop> <stop offset="0.5131" style="stop-color:#455C87;stop-opacity:0.6525"></stop> <stop offset="0.7863" style="stop-color:#444C6D"></stop> </linearGradient> <path class="st32" d="M169,126.5c0,15.9,9.2,32,30.3,44.2c18.2,10.5,41.9,16.3,65.7,17.2c1.8,0.1,3.5,1.6,3.5,3.4v29.6 c0,1.9-1.9,3.5-3.8,3.4c-23.7-1-47.2-6.7-65.3-17.2c-21-12.2-30.4-28.3-30.4-44.2V126.5z"></path> <g> <g> <g> <linearGradient id="SVGID_24_" gradientUnits="userSpaceOnUse" x1="174.8615" y1="180.5051" x2="179.3902" y2="173.1524" gradientTransform="matrix(1 -3.227546e-03 3.227546e-03 1 22.5482 -2.3501)"> <stop offset="0" style="stop-color:#9AA9FF"></stop> <stop offset="1" style="stop-color:#6070DF"></stop> </linearGradient> <polygon class="st33" points="220.2,157.5 220.2,192.5 189.7,175 189.7,140 "></polygon> <linearGradient id="SVGID_25_" gradientUnits="userSpaceOnUse" x1="227.7196" y1="189.4546" x2="215.3891" y2="158.9357"> <stop offset="0" style="stop-color:#9AA9FF"></stop> <stop offset="1" style="stop-color:#6070DF"></stop> </linearGradient> <polygon class="st34" points="220.2,157.5 222.9,155.9 222.9,190.9 220.2,192.5 "></polygon> <linearGradient id="SVGID_26_" gradientUnits="userSpaceOnUse" x1="211.5563" y1="160.9852" x2="201.028" y2="134.9266"> <stop offset="1.241987e-03" style="stop-color:#9AA9FF"></stop> <stop offset="1" style="stop-color:#4E5EBE"></stop> </linearGradient> <polygon class="st35" points="189.7,140 192.4,138.4 222.9,155.9 220.2,157.5 "></polygon> </g> <g> <defs> <polygon id="SVGID_27_" points="222.9,155.9 192.4,138.4 189.7,140 189.7,175 220.2,192.5 222.9,190.9 "></polygon> </defs> <clipPath id="SVGID_28_"> <use xlink:href="#SVGID_27_" style="overflow:visible;"></use> </clipPath> <linearGradient id="SVGID_29_" gradientUnits="userSpaceOnUse" x1="230.5021" y1="185.5427" x2="179.8059" y2="151.3477"> <stop offset="0.271" style="stop-color:#FFFFFF"></stop> <stop offset="0.391" style="stop-color:#F8F9FF"></stop> <stop offset="0.5642" style="stop-color:#E5E9FF"></stop> <stop offset="0.7696" style="stop-color:#C6CEFF"></stop> <stop offset="0.9981" style="stop-color:#9AA9FF"></stop> <stop offset="1" style="stop-color:#9AA9FF"></stop> </linearGradient> <polyline class="st36" points="187.9,139.4 219.8,157.5 219.8,199.8 "></polyline> </g> </g> <linearGradient id="SVGID_30_" gradientUnits="userSpaceOnUse" x1="91.1575" y1="212.1809" x2="213.8605" y2="212.1809"> <stop offset="0" style="stop-color:#9E9E9E;stop-opacity:0.4"></stop> <stop offset="0.778" style="stop-color:#9E9E9E;stop-opacity:0.4"></stop> <stop offset="1" style="stop-color:#9CBACB"></stop> </linearGradient> <line class="st37" x1="92.2" y1="247" x2="212.8" y2="177.4"></line> <g> <g> <linearGradient id="SVGID_31_" gradientUnits="userSpaceOnUse" x1="174.354" y1="240.2401" x2="162.9959" y2="217.9485"> <stop offset="0" style="stop-color:#FF7A88"></stop> <stop offset="1" style="stop-color:#FFC7CA"></stop> </linearGradient> <polygon class="st38" points="167.6,198.9 182.7,242.7 152.3,225.1 "></polygon> <linearGradient id="SVGID_32_" gradientUnits="userSpaceOnUse" x1="182.9485" y1="235.7682" x2="171.5686" y2="207.602"> <stop offset="1.241987e-03" style="stop-color:#FFA0A8"></stop> <stop offset="1" style="stop-color:#FF3C5C"></stop> </linearGradient> <polygon class="st39" points="167.6,198.9 170.4,197.3 185.5,241.1 182.7,242.7 "></polygon> </g> <g> <defs> <polygon id="SVGID_33_" points="170.4,197.3 167.6,198.9 152.3,225.1 182.7,242.7 185.5,241.1 "></polygon> </defs> <clipPath id="SVGID_34_"> <use xlink:href="#SVGID_33_" style="overflow:visible;"></use> </clipPath> <linearGradient id="SVGID_35_" gradientUnits="userSpaceOnUse" x1="193.0177" y1="232.7986" x2="157.3413" y2="208.7346"> <stop offset="0" style="stop-color:#FFC7CA"></stop> <stop offset="0.2937" style="stop-color:#FFE5E6"></stop> <stop offset="0.5508" style="stop-color:#FFF8F9"></stop> <stop offset="0.729" style="stop-color:#FFFFFF"></stop> </linearGradient> <line class="st40" x1="166.7" y1="196.1" x2="183.7" y2="245.4"></line> </g> </g> <linearGradient id="SVGID_36_" gradientUnits="userSpaceOnUse" x1="91.1575" y1="243.3658" x2="167.6977" y2="243.3658"> <stop offset="0" style="stop-color:#9E9E9E;stop-opacity:0"></stop> <stop offset="0.778" style="stop-color:#9E9E9E;stop-opacity:0.4"></stop> <stop offset="1" style="stop-color:#9CBACB"></stop> </linearGradient> <line class="st41" x1="166.6" y1="221.9" x2="92.2" y2="264.8"></line> <g> <g> <linearGradient id="SVGID_37_" gradientUnits="userSpaceOnUse" x1="187.306" y1="203.5569" x2="165.6018" y2="169.3407"> <stop offset="0" style="stop-color:#FF7A88"></stop> <stop offset="1" style="stop-color:#FFC7CA"></stop> </linearGradient> <polygon class="st42" points="186,168.7 186,203.7 155.5,186.2 155.5,151.2 "></polygon> <linearGradient id="SVGID_38_" gradientUnits="userSpaceOnUse" x1="187.3901" y1="203.7025" x2="187.3901" y2="167.0917"> <stop offset="0" style="stop-color:#FF3C5C"></stop> <stop offset="0.9988" style="stop-color:#FFA0A8"></stop> </linearGradient> <polygon class="st43" points="186,168.7 188.8,167.1 188.8,202.1 186,203.7 "></polygon> <linearGradient id="SVGID_39_" gradientUnits="userSpaceOnUse" x1="155.492" y1="159.1579" x2="188.7639" y2="159.1579"> <stop offset="1.241987e-03" style="stop-color:#FFA0A8"></stop> <stop offset="1" style="stop-color:#FF3C5C"></stop> </linearGradient> <polygon class="st44" points="155.5,151.2 158.3,149.6 188.8,167.1 186,168.7 "></polygon> </g> <g> <defs> <polygon id="SVGID_40_" points="188.8,167.1 158.3,149.6 155.5,151.2 155.5,186.2 186,203.7 188.8,202.1 "></polygon> </defs> <clipPath id="SVGID_41_"> <use xlink:href="#SVGID_40_" style="overflow:visible;"></use> </clipPath> <linearGradient id="SVGID_42_" gradientUnits="userSpaceOnUse" x1="160.5637" y1="195.3295" x2="180.7295" y2="164.2769"> <stop offset="0" style="stop-color:#FFC7CA"></stop> <stop offset="0.2937" style="stop-color:#FFE5E6"></stop> <stop offset="0.5508" style="stop-color:#FFF8F9"></stop> <stop offset="0.729" style="stop-color:#FFFFFF"></stop> </linearGradient> <polyline class="st45" points="153.6,150.6 185.5,168.7 185.5,210.8 "></polyline> </g> </g> <linearGradient id="SVGID_43_" gradientUnits="userSpaceOnUse" x1="113.6608" y1="193.653" x2="171.0207" y2="193.653"> <stop offset="3.786058e-03" style="stop-color:#FFFFFF;stop-opacity:0.6"></stop> <stop offset="0.3195" style="stop-color:#D6D6D6;stop-opacity:0.5184"></stop> <stop offset="0.778" style="stop-color:#9E9E9E;stop-opacity:0.4"></stop> <stop offset="1" style="stop-color:#9CBACB"></stop> </linearGradient> <line class="st46" x1="169.9" y1="177.7" x2="114.7" y2="209.6"></line> <g> <g> <linearGradient id="SVGID_44_" gradientUnits="userSpaceOnUse" x1="61.9767" y1="240.0313" x2="77.329" y2="266.4474" gradientTransform="matrix(1 -3.227546e-03 3.227546e-03 1 22.5482 -2.3501)"> <stop offset="7.572116e-03" style="stop-color:#F8A1D6"></stop> <stop offset="1" style="stop-color:#F073C4"></stop> </linearGradient> <polygon class="st47" points="106.9,239.6 106.9,274.6 76.4,257.1 76.4,222.1 "></polygon> <linearGradient id="SVGID_45_" gradientUnits="userSpaceOnUse" x1="108.3013" y1="274.5921" x2="108.3013" y2="237.9813"> <stop offset="2.524039e-03" style="stop-color:#F8A1D6"></stop> <stop offset="1" style="stop-color:#BE5097"></stop> </linearGradient> <polygon class="st48" points="106.9,239.6 109.7,238 109.7,273 106.9,274.6 "></polygon> <linearGradient id="SVGID_46_" gradientUnits="userSpaceOnUse" x1="76.4032" y1="230.0474" x2="109.6751" y2="230.0474"> <stop offset="0" style="stop-color:#BE5097"></stop> <stop offset="0.9975" style="stop-color:#F8A1D6"></stop> </linearGradient> <polygon class="st49" points="76.4,222.1 79.2,220.5 109.7,238 106.9,239.6 "></polygon> </g> <g> <defs> <polygon id="SVGID_47_" points="109.7,238 79.2,220.5 76.4,222.1 76.4,257.1 106.9,274.6 109.7,273 "></polygon> </defs> <clipPath id="SVGID_48_"> <use xlink:href="#SVGID_47_" style="overflow:visible;"></use> </clipPath> <linearGradient id="SVGID_49_" gradientUnits="userSpaceOnUse" x1="79.616" y1="252.6614" x2="109.691" y2="247.898"> <stop offset="0" style="stop-color:#F8A1D6"></stop> <stop offset="0.2572" style="stop-color:#FABCE2"></stop> <stop offset="0.7532" style="stop-color:#FEECF7"></stop> <stop offset="1" style="stop-color:#FFFFFF"></stop> </linearGradient> <polyline class="st50" points="75.3,221.2 107.2,239.6 107.2,281.1 "></polyline> </g> </g> <g> <g> <linearGradient id="SVGID_50_" gradientUnits="userSpaceOnUse" x1="126.8676" y1="226.6473" x2="109.5082" y2="188.7391"> <stop offset="0" style="stop-color:#6F84FF"></stop> <stop offset="1" style="stop-color:#9AA9FF"></stop> </linearGradient> <polygon class="st51" points="119.3,180.4 134.5,224.2 104,206.6 "></polygon> <linearGradient id="SVGID_51_" gradientUnits="userSpaceOnUse" x1="122.6106" y1="185.3122" x2="132.7287" y2="214.0974"> <stop offset="0" style="stop-color:#4E5EBE"></stop> <stop offset="0.9988" style="stop-color:#9AA9FF"></stop> </linearGradient> <polygon class="st52" points="119.3,180.4 122.1,178.8 137.2,222.6 134.5,224.2 "></polygon> </g> <g> <defs> <polygon id="SVGID_52_" points="122.1,178.8 119.3,180.4 104,206.6 134.5,224.2 137.2,222.6 "></polygon> </defs> <clipPath id="SVGID_53_"> <use xlink:href="#SVGID_52_" style="overflow:visible;"></use> </clipPath> <linearGradient id="SVGID_54_" gradientUnits="userSpaceOnUse" x1="117.3578" y1="202.2686" x2="136.4524" y2="202.2686"> <stop offset="0.271" style="stop-color:#FFFFFF"></stop> <stop offset="0.391" style="stop-color:#F8F9FF"></stop> <stop offset="0.5642" style="stop-color:#E5E9FF"></stop> <stop offset="0.7696" style="stop-color:#C6CEFF"></stop> <stop offset="0.9981" style="stop-color:#9AA9FF"></stop> <stop offset="1" style="stop-color:#9AA9FF"></stop> </linearGradient> <line class="st53" x1="118.4" y1="177.6" x2="135.4" y2="226.9"></line> </g> </g> <linearGradient id="SVGID_55_" gradientUnits="userSpaceOnUse" x1="3.4028" y1="272.9022" x2="91.3602" y2="272.9022"> <stop offset="0" style="stop-color:#9E9E9E;stop-opacity:0"></stop> <stop offset="0.778" style="stop-color:#9E9E9E;stop-opacity:0.4"></stop> <stop offset="1" style="stop-color:#9CBACB"></stop> </linearGradient> <line class="st54" x1="90.3" y1="248.1" x2="4.5" y2="297.7"></line> <g> <g> <linearGradient id="SVGID_56_" gradientUnits="userSpaceOnUse" x1="255.6551" y1="208.0114" x2="264.1152" y2="190.3931"> <stop offset="0" style="stop-color:#FF9EA9"></stop> <stop offset="1" style="stop-color:#FF3C5C"></stop> </linearGradient> <polygon class="st55" points="254.6,175.4 269.8,219.2 239.3,201.6 "></polygon> <linearGradient id="SVGID_57_" gradientUnits="userSpaceOnUse" x1="257.8923" y1="180.3082" x2="268.0105" y2="209.0935"> <stop offset="0.2949" style="stop-color:#FF3C5C"></stop> <stop offset="0.9988" style="stop-color:#FFA0A8"></stop> </linearGradient> <polygon class="st56" points="254.6,175.4 257.4,173.8 272.5,217.6 269.8,219.2 "></polygon> </g> <g> <defs> <polygon id="SVGID_58_" points="257.4,173.8 254.6,175.4 239.3,201.6 269.8,219.2 272.5,217.6 "></polygon> </defs> <clipPath id="SVGID_59_"> <use xlink:href="#SVGID_58_" style="overflow:visible;"></use> </clipPath> <linearGradient id="SVGID_60_" gradientUnits="userSpaceOnUse" x1="252.6395" y1="197.2647" x2="271.7342" y2="197.2647"> <stop offset="0" style="stop-color:#FFC7CA"></stop> <stop offset="0.2937" style="stop-color:#FFE5E6"></stop> <stop offset="0.5508" style="stop-color:#FFF8F9"></stop> <stop offset="0.729" style="stop-color:#FFFFFF"></stop> </linearGradient> <line class="st57" x1="253.7" y1="172.6" x2="270.7" y2="221.9"></line> </g> </g> <linearGradient id="SVGID_61_" gradientUnits="userSpaceOnUse" x1="150.2114" y1="227.3718" x2="251.9307" y2="227.3718"> <stop offset="0" style="stop-color:#9E9E9E;stop-opacity:0"></stop> <stop offset="0.778" style="stop-color:#9E9E9E;stop-opacity:0.4"></stop> <stop offset="1" style="stop-color:#9CBACB"></stop> </linearGradient> <line class="st58" x1="151.3" y1="256.1" x2="250.8" y2="198.6"></line> <linearGradient id="SVGID_62_" gradientUnits="userSpaceOnUse" x1="-35.5355" y1="351.4129" x2="-35.5355" y2="351.4129"> <stop offset="0" style="stop-color:#9E9E9E;stop-opacity:0"></stop> <stop offset="0.778" style="stop-color:#9E9E9E;stop-opacity:0.4"></stop> <stop offset="1" style="stop-color:#9CBACB"></stop> </linearGradient> <path class="st59" d="M-35.5,351.4"></path> <linearGradient id="SVGID_63_" gradientUnits="userSpaceOnUse" x1="233.4212" y1="196.1306" x2="233.4212" y2="196.1306"> <stop offset="0" style="stop-color:#9E9E9E;stop-opacity:0"></stop> <stop offset="0.778" style="stop-color:#9E9E9E;stop-opacity:0.4"></stop> <stop offset="1" style="stop-color:#9CBACB"></stop> </linearGradient> <path class="st60" d="M233.4,196.1"></path> <g> <g> <linearGradient id="SVGID_64_" gradientUnits="userSpaceOnUse" x1="220.028" y1="214.1507" x2="236.5577" y2="237.7077"> <stop offset="0" style="stop-color:#BE5097"></stop> <stop offset="0.9975" style="stop-color:#F8A1D6"></stop> </linearGradient> <path class="st61" d="M222.8,207.1c-4.2-2.4-8.1-2.7-10.8-1.1l-2.8,1.6c2.8-1.6,6.6-1.4,10.8,1.1 c8.4,4.9,15.2,16.6,15.2,26.3c0,4.8-1.7,8.2-4.4,9.8l2.8-1.6c2.7-1.6,4.4-5,4.4-9.8C238,223.7,231.2,211.9,222.8,207.1z"></path> <linearGradient id="SVGID_65_" gradientUnits="userSpaceOnUse" x1="212.1017" y1="213.5613" x2="228.2456" y2="239.3844"> <stop offset="7.572116e-03" style="stop-color:#F8A1D6"></stop> <stop offset="1" style="stop-color:#F073C4"></stop> </linearGradient> <path class="st62" d="M220,208.7c8.4,4.9,15.2,16.6,15.2,26.3c0,9.7-6.9,13.6-15.3,8.7c-8.4-4.9-15.2-16.6-15.2-26.3 C204.8,207.7,211.6,203.8,220,208.7z"></path> </g> <g> <defs> <path id="SVGID_66_" d="M222.8,207.1c-4.2-2.4-8.1-2.7-10.8-1.1l-2.8,1.6c0,0,0,0,0,0c-2.7,1.6-4.5,5-4.5,9.8 c0,9.7,6.8,21.4,15.2,26.3c4.3,2.5,8.1,2.7,10.9,1c0,0,0,0,0,0l2.8-1.6c2.7-1.6,4.4-5,4.4-9.8 C238,223.7,231.2,211.9,222.8,207.1z"></path> </defs> <clipPath id="SVGID_67_"> <use xlink:href="#SVGID_66_" style="overflow:visible;"></use> </clipPath> <linearGradient id="SVGID_68_" gradientUnits="userSpaceOnUse" x1="206.8239" y1="225.9677" x2="236.2957" y2="225.9677"> <stop offset="0" style="stop-color:#F8A1D6"></stop> <stop offset="0.2572" style="stop-color:#FABCE2"></stop> <stop offset="0.7532" style="stop-color:#FEECF7"></stop> <stop offset="1" style="stop-color:#FFFFFF"></stop> </linearGradient> <path class="st63" d="M207.6,208.1c3.1-2.9,7.7-2.1,12.5,0.6c8.4,4.9,15.2,16.6,15.2,26.3c0,5.3-2,9.4-5.2,10.8"></path> </g> </g> <linearGradient id="SVGID_69_" gradientUnits="userSpaceOnUse" x1="24.2745" y1="283.5076" x2="219.0703" y2="283.5076"> <stop offset="0" style="stop-color:#9E9E9E;stop-opacity:0"></stop> <stop offset="0.778" style="stop-color:#9E9E9E;stop-opacity:0.4"></stop> <stop offset="1" style="stop-color:#9CBACB"></stop> </linearGradient> <line class="st64" x1="218" y1="227.9" x2="25.4" y2="339.1"></line> <linearGradient id="SVGID_70_" gradientUnits="userSpaceOnUse" x1="49.0217" y1="222.4482" x2="118.6231" y2="222.4482"> <stop offset="0" style="stop-color:#9E9E9E;stop-opacity:0"></stop> <stop offset="0.778" style="stop-color:#9E9E9E;stop-opacity:0.4"></stop> <stop offset="1" style="stop-color:#9CBACB"></stop> </linearGradient> <line class="st65" x1="50.1" y1="241.9" x2="117.5" y2="203"></line> <g> <g> <linearGradient id="SVGID_71_" gradientUnits="userSpaceOnUse" x1="74.6335" y1="312.1188" x2="63.2536" y2="283.9526"> <stop offset="1.241987e-03" style="stop-color:#FFA0A8"></stop> <stop offset="1" style="stop-color:#FF3C5C"></stop> </linearGradient> <polygon class="st66" points="59.3,275.2 62.1,273.6 77.2,317.4 74.4,319 "></polygon> <linearGradient id="SVGID_72_" gradientUnits="userSpaceOnUse" x1="66.039" y1="316.5907" x2="54.6809" y2="294.2992"> <stop offset="0" style="stop-color:#FF7A88"></stop> <stop offset="1" style="stop-color:#FFC7CA"></stop> </linearGradient> <polygon class="st67" points="59.3,275.2 74.4,319 44,301.4 "></polygon> </g> <g> <defs> <polygon id="SVGID_73_" points="62.1,273.6 59.3,275.2 44,301.4 74.4,319 77.2,317.4 "></polygon> </defs> <clipPath id="SVGID_74_"> <use xlink:href="#SVGID_73_" style="overflow:visible;"></use> </clipPath> <linearGradient id="SVGID_75_" gradientUnits="userSpaceOnUse" x1="84.7027" y1="309.1493" x2="49.0263" y2="285.0853"> <stop offset="0" style="stop-color:#FFC7CA"></stop> <stop offset="0.2937" style="stop-color:#FFE5E6"></stop> <stop offset="0.5508" style="stop-color:#FFF8F9"></stop> <stop offset="0.729" style="stop-color:#FFFFFF"></stop> </linearGradient> <line class="st68" x1="58.3" y1="272.4" x2="75.4" y2="321.8"></line> </g> </g> <g> <g> <linearGradient id="SVGID_76_" gradientUnits="userSpaceOnUse" x1="164.1464" y1="287.3503" x2="164.1464" y2="250.7395"> <stop offset="1.241987e-03" style="stop-color:#9AA9FF"></stop> <stop offset="1" style="stop-color:#4E5EBE"></stop> </linearGradient> <polygon class="st69" points="162.8,252.4 165.5,250.7 165.5,285.7 162.8,287.4 "></polygon> <linearGradient id="SVGID_77_" gradientUnits="userSpaceOnUse" x1="132.2482" y1="242.8057" x2="165.5202" y2="242.8057"> <stop offset="0" style="stop-color:#4E5EBE"></stop> <stop offset="0.9988" style="stop-color:#9AA9FF"></stop> </linearGradient> <polygon class="st70" points="132.2,234.9 135,233.3 165.5,250.7 162.8,252.4 "></polygon> <linearGradient id="SVGID_78_" gradientUnits="userSpaceOnUse" x1="124.463" y1="274.9633" x2="123.61" y2="248.0461" gradientTransform="matrix(1 -3.227546e-03 3.227546e-03 1 22.5482 -2.3501)"> <stop offset="0" style="stop-color:#6F84FF"></stop> <stop offset="1" style="stop-color:#9AA9FF"></stop> </linearGradient> <polygon class="st71" points="162.8,252.4 162.8,287.4 132.3,269.9 132.2,234.9 "></polygon> </g> <g> <defs> <polygon id="SVGID_79_" points="165.5,250.7 135,233.3 132.2,234.9 132.3,269.9 162.8,287.4 165.5,285.7 "></polygon> </defs> <clipPath id="SVGID_80_"> <use xlink:href="#SVGID_79_" style="overflow:visible;"></use> </clipPath> <linearGradient id="SVGID_81_" gradientUnits="userSpaceOnUse" x1="140.7204" y1="266.2195" x2="166.1477" y2="257.9577"> <stop offset="0.271" style="stop-color:#FFFFFF"></stop> <stop offset="0.391" style="stop-color:#F8F9FF"></stop> <stop offset="0.5642" style="stop-color:#E5E9FF"></stop> <stop offset="0.7696" style="stop-color:#C6CEFF"></stop> <stop offset="0.9981" style="stop-color:#9AA9FF"></stop> <stop offset="1" style="stop-color:#9AA9FF"></stop> </linearGradient> <polyline class="st72" points="131.2,234.2 163,252.4 163,294.5 "></polyline> </g> </g> <linearGradient id="SVGID_82_" gradientUnits="userSpaceOnUse" x1="-17.1575" y1="319.7164" x2="59.3827" y2="319.7164"> <stop offset="0" style="stop-color:#9E9E9E;stop-opacity:0"></stop> <stop offset="0.778" style="stop-color:#9E9E9E;stop-opacity:0.4"></stop> <stop offset="1" style="stop-color:#9CBACB"></stop> </linearGradient> <line class="st73" x1="58.3" y1="298.2" x2="-16.1" y2="341.2"></line> <linearGradient id="SVGID_83_" gradientUnits="userSpaceOnUse" x1="55.4982" y1="286.3212" x2="146.9352" y2="286.3212"> <stop offset="0" style="stop-color:#9E9E9E;stop-opacity:0"></stop> <stop offset="0.778" style="stop-color:#9E9E9E;stop-opacity:0.4"></stop> <stop offset="1" style="stop-color:#9CBACB"></stop> </linearGradient> <line class="st74" x1="145.9" y1="260.7" x2="56.6" y2="311.9"></line> </g> </g> </g> <g> <defs> <path id="SVGID_84_" d="M166.4,154.2l5.2,3l17.2,37.4l0,7.4l16.7,10.3c0,0,1.5-3,2.3-3.7c0.8-0.7,25,8.6,25,8.6 s2.1,3.3,2.9,5.6c0.6,1.6,34.5,5.4,34.5,5.4s2.4-6.2,2.4-6.6s-1-38.5-1-38.5l-47-5.7l-37.1-22l-15.2-30.1h-7.4L166.4,154.2z"></path> </defs> <clipPath id="SVGID_85_"> <use xlink:href="#SVGID_84_" style="overflow:visible;"></use> </clipPath> <path class="st75" d="M169,126.5c0,15.9,9.2,32,30.3,44.2c18.2,10.5,41.9,16.3,65.7,17.2c1.8,0.1,3.5,1.6,3.5,3.4v29.6 c0,1.9-1.9,3.5-3.8,3.4c-23.7-1-47.2-6.7-65.3-17.2c-21-12.2-30.4-28.3-30.4-44.2V126.5z"></path> </g> <path class="st76" d="M277.9,69.6c-0.8-0.5-1.9-0.7-3.1-0.7l-33.1,0c-2.4,0-4.4,1.1-4.4,2.5l0.1,19.2c0,0.7,0.5,1.3,1.3,1.8 s1.9,0.7,3.1,0.7l33.1,0c2.4,0,4.4-1.1,4.4-2.5l-0.1-19.2C279.2,70.7,278.7,70.1,277.9,69.6z M305.8,56c0-0.7-0.5-1.3-1.3-1.8 c-0.8-0.5-1.9-0.7-3.1-0.7l-14.8,0c-2.4,0-4.4,1.1-4.4,2.5l0,8.6c0,0.7,0.5,1.3,1.3,1.8c0.8,0.5,1.9,0.7,3.1,0.7l14.8,0 c2.4,0,4.4-1.1,4.4-2.5L305.8,56z"></path> <g> <g> <polygon class="st76" points="400.9,93 391,98.8 389.1,99.8 387.6,98.9 389.4,97.9 399.4,92.1 "></polygon> </g> <g> <polygon class="st76" points="393.6,87.5 393.6,92.4 391.4,92.4 391.4,89.6 393.3,88.5 391.7,87.6 389.9,88.7 385,88.7 385,87.5 "></polygon> </g> <g> <polygon class="st76" points="395.8,98.7 395.8,100 387.3,100 387.3,95.1 389.4,95.1 389.4,97.9 387.6,98.9 389.1,99.8 391,98.8 "></polygon> </g> <g> <polygon class="st76" points="393.3,88.5 391.4,89.6 381.5,95.4 379.9,94.5 389.9,88.7 391.7,87.6 "></polygon> </g> </g> <g> <g> <polygon class="st76" points="465.9,97.3 452.7,105 451.2,104.1 464.4,96.4 "></polygon> </g> <g> <polygon class="st76" points="456.1,99.3 449.5,103.1 448,102.3 454.6,98.4 "></polygon> </g> <g> <polygon class="st76" points="456.2,95.6 446.4,101.3 444.8,100.4 454.6,94.7 "></polygon> </g> <g> <polygon class="st76" points="453,93.8 443.2,99.5 441.7,98.6 451.5,92.9 "></polygon> </g> <g> <polygon class="st76" points="453.2,90 440.1,97.7 438.5,96.8 451.7,89.1 "></polygon> </g> </g> <g> <g> <path class="st76" d="M430.8,148.9c3,1.7,5.9,4.1,4.1,5.2c-0.1,0-0.1,0.1-0.2,0.1l-1.5-0.9l-1.5,0.9c-1.8-0.4-4-1.4-5.7-2.4 c-1.7-1-3.4-2.2-4.2-3.3l1.5-0.9l-1.5-0.9c0.1,0,0.1-0.1,0.2-0.1C423.7,145.5,427.9,147.2,430.8,148.9z M427.5,150.8 c2.8,1.6,5,2.2,5.8,2.3c-0.1-0.5-1.2-1.7-4-3.3c-2.8-1.6-5-2.2-5.8-2.3C423.7,148,424.7,149.2,427.5,150.8"></path> </g> <g> <path class="st76" d="M434.7,154.2l-9.9,5.8c-1.8,1-5.9-0.6-8.9-2.3c-3-1.7-5.9-4.1-4.1-5.2l9.9-5.7l1.5,0.9l-1.5,0.9l-1.5,0.9 l-1.7,1l-1.6,0.9l-1.7,1l-1.7,1c0,0.3,1,1.7,4,3.4c3,1.7,5.4,2.3,5.9,2.3l1.7-1l1.7-1l1.6-0.9l1.7-1l1.5-0.9l1.5-0.9 L434.7,154.2z"></path> </g> <g> <path class="st76" d="M420.3,149.3c0,0.3,1,1.7,4,3.4c3,1.7,5.4,2.3,5.9,2.3l-1.7,1c-1.8-0.4-4-1.4-5.7-2.4 c-1.7-1-3.4-2.2-4.2-3.3L420.3,149.3z"></path> </g> <g> <path class="st76" d="M416.9,151.3c0,0.3,1,1.7,4,3.4c3,1.7,5.4,2.3,5.9,2.3l-1.7,1c-1.8-0.4-4-1.4-5.7-2.4 c-1.7-1-3.4-2.2-4.2-3.3L416.9,151.3z"></path> </g> </g> </g> </g> </g> </svg> 